<svg width="36" height="36" viewBox="0 0 36 36" fill="none" xmlns="http://www.w3.org/2000/svg">
  <path d="M18 3c2.1 0 3.8 1.7 3.8 3.8v9.1l1.3-1.4a3.2 3.2 0 0 1 4.6 0l.1.1a3.2 3.2 0 0 1 .5 3.8l-4.6 8.5A8.7 8.7 0 0 1 16 31.5h-1.4a8.5 8.5 0 0 1-7.2-4L4.1 22a3.1 3.1 0 0 1 1-4.2 3.1 3.1 0 0 1 4.1.6l.9 1.1V6.8C10.1 4.7 11.8 3 14 3c1.1 0 2.1.5 2.8 1.3A3.8 3.8 0 0 1 18 3Z" fill="#F8D49A" stroke="#6E5235" stroke-width="2.2" stroke-linejoin="round"/>
  <path d="M16.8 17V6.8a2.2 2.2 0 1 1 4.4 0v11.8M10.1 19.4l3.5 4.2M21.8 16l1.7-1.7" stroke="#6E5235" stroke-width="2" stroke-linecap="round"/>
  <path d="M7 8.5 4.7 6.2M11 5.2 10.2 2M25.5 8.2 28 5.8" stroke="#8BCF8B" stroke-width="2" stroke-linecap="round"/>
</svg>
